<svg width="43" height="43" viewBox="0 0 43 43" fill="none" xmlns="http://www.w3.org/2000/svg">
<path d="M33.514 3.86121H8.8197C7.41628 3.86121 6.07033 4.41872 5.07796 5.41109C4.08559 6.40346 3.52808 7.74941 3.52808 9.15283V33.8471C3.52808 35.2505 4.08559 36.5965 5.07796 37.5888C6.07033 38.5812 7.41628 39.1387 8.8197 39.1387H33.514C34.9174 39.1387 36.2633 38.5812 37.2557 37.5888C38.2481 36.5965 38.8056 35.2505 38.8056 33.8471V9.15283C38.8056 7.74941 38.2481 6.40346 37.2557 5.41109C36.2633 4.41872 34.9174 3.86121 33.514 3.86121ZM17.6391 7.38896H24.6946V12.9099L22.137 11.146C21.849 10.9563 21.5117 10.8553 21.1668 10.8553C20.822 10.8553 20.4847 10.9563 20.1967 11.146L17.6391 12.9099V7.38896ZM35.2778 33.8471C35.2778 34.3149 35.092 34.7635 34.7612 35.0943C34.4304 35.4251 33.9818 35.611 33.514 35.611H8.8197C8.35189 35.611 7.90324 35.4251 7.57245 35.0943C7.24166 34.7635 7.05583 34.3149 7.05583 33.8471V9.15283C7.05583 8.68502 7.24166 8.23637 7.57245 7.90558C7.90324 7.57479 8.35189 7.38896 8.8197 7.38896H14.1113V16.2083C14.1122 16.5274 14.1996 16.8403 14.3642 17.1137C14.5288 17.387 14.7645 17.6106 15.0462 17.7605C15.322 17.9022 15.6303 17.9686 15.94 17.9531C16.2496 17.9376 16.5497 17.8408 16.8101 17.6723L21.1668 14.7972L25.4883 17.6723C25.7536 17.8471 26.0611 17.9469 26.3785 17.9613C26.6958 17.9757 27.0111 17.9042 27.2911 17.7542C27.5712 17.6043 27.8055 17.3815 27.9694 17.1094C28.1333 16.8373 28.2207 16.526 28.2223 16.2083V7.38896H33.514C33.9818 7.38896 34.4304 7.57479 34.7612 7.90558C35.092 8.23637 35.2778 8.68502 35.2778 9.15283V33.8471Z" fill="#3755FA"/>
</svg>
