<svg width="41" height="43" viewBox="0 0 41 43" fill="none" xmlns="http://www.w3.org/2000/svg">
<path d="M12.0818 28.3373C12.1378 28.5398 12.2332 28.7294 12.3624 28.8951C12.4917 29.0608 12.6524 29.1994 12.8352 29.303C13.018 29.4066 13.2195 29.4732 13.4281 29.4989C13.6367 29.5246 13.8483 29.5091 14.0508 29.453C14.2534 29.397 14.4429 29.3016 14.6086 29.1723C14.7743 29.0431 14.9129 28.8824 15.0165 28.6996C15.1201 28.5167 15.1867 28.3153 15.2124 28.1067C15.2382 27.8981 15.2226 27.6865 15.1665 27.484L12.0818 28.3373ZM2.89566 5.85189C2.69231 5.7925 2.4792 5.77408 2.26868 5.7977C2.05815 5.82132 1.85442 5.88651 1.66929 5.98949C1.48416 6.09247 1.32133 6.23119 1.19023 6.3976C1.05914 6.56401 0.962394 6.75479 0.905616 6.95889C0.848837 7.16298 0.833153 7.37632 0.859475 7.58652C0.885796 7.79673 0.953597 7.99961 1.05895 8.1834C1.16429 8.36719 1.30509 8.52823 1.47317 8.65718C1.64125 8.78613 1.83326 8.88042 2.03807 8.93457L2.89566 5.85189ZM39.1366 29.3186C39.3449 29.2705 39.5415 29.181 39.7146 29.0556C39.8878 28.9301 40.0341 28.7713 40.1448 28.5883C40.2556 28.4054 40.3285 28.2022 40.3594 27.9906C40.3902 27.779 40.3783 27.5633 40.3244 27.3564C40.2705 27.1495 40.1757 26.9555 40.0455 26.7858C39.9154 26.6161 39.7525 26.4743 39.5666 26.3687C39.3807 26.263 39.1755 26.1957 38.9631 26.1707C38.7507 26.1457 38.5355 26.1636 38.3302 26.2232L39.1366 29.3186ZM17.8225 33.2312C18.4839 35.6205 17.0332 38.1443 14.4647 38.812L15.2689 41.9075C19.4865 40.8131 22.0636 36.5699 20.9073 32.3778L17.8225 33.2312ZM14.4647 38.812C11.8791 39.484 9.28496 37.9821 8.61937 35.5714L5.53458 36.4248C6.68658 40.5955 11.0684 42.9997 15.2689 41.9075L14.4647 38.812ZM8.61937 35.5714C7.95804 33.1821 9.4087 30.6584 11.9772 29.9906L11.173 26.8973C6.95537 27.9917 4.37619 32.2328 5.53458 36.4248L8.61937 35.5714ZM11.9772 29.9906C14.5628 29.3186 17.1569 30.8205 17.8225 33.2312L20.9073 32.3778C19.7553 28.2072 15.3735 25.8029 11.173 26.8952L11.9772 29.9906ZM15.1665 27.484L10.5756 10.8652L7.49084 11.7186L12.0818 28.3373L15.1665 27.484ZM6.53084 6.85883L2.89566 5.85189L2.03807 8.93457L5.67538 9.94364L6.53084 6.85883ZM10.5756 10.8652C10.305 9.90492 9.7901 9.0311 9.08124 8.32897C8.37238 7.62683 7.4937 7.12033 6.53084 6.85883L5.67965 9.94364C6.58631 10.1954 7.26044 10.8844 7.49084 11.7186L10.5756 10.8652ZM19.7702 34.3533L39.1366 29.3186L38.3323 26.2232L18.9639 31.2578L19.7702 34.3533Z" fill="#3755FA"/>
<path d="M36.9545 9.07494C35.9199 5.32879 35.4015 3.45572 33.8825 2.60452C32.3594 1.75118 30.4287 2.25465 26.5674 3.25945L22.4714 4.32185C18.6101 5.32452 16.6794 5.82799 15.8026 7.30426C14.9237 8.7784 15.44 10.6515 16.4746 14.3955L17.5733 18.3699C18.6079 22.1139 19.1242 23.987 20.6453 24.8382C22.1663 25.6915 24.097 25.1881 27.9583 24.1854L32.0543 23.1187C35.9156 22.116 37.8463 21.6147 38.7252 20.1406C39.2073 19.3299 39.2692 18.3998 39.0537 17.1048" stroke="#3755FA" stroke-width="3.2" stroke-linecap="round"/>
</svg>
