<svg width="43" height="43" viewBox="0 0 43 43" fill="none" xmlns="http://www.w3.org/2000/svg">
<g clip-path="url(#clip0_1_1041)">
<path d="M9.66709 29.1105V23.2772M21.3336 9.6661V3.83276M33.0002 29.1105V23.2772M17.4448 27.1661V34.9439C17.4448 35.9753 17.0351 36.9644 16.3058 37.6937C15.5765 38.423 14.5873 38.8328 13.5559 38.8328H5.77823C4.74685 38.8328 3.7577 38.423 3.0284 37.6937C2.2991 36.9644 1.88938 35.9753 1.88938 34.9439V27.1661C1.88938 26.1347 2.2991 25.1455 3.0284 24.4162C3.7577 23.6869 4.74685 23.2772 5.77823 23.2772H13.5559C14.5873 23.2772 15.5765 23.6869 16.3058 24.4162C17.0351 25.1455 17.4448 26.1347 17.4448 27.1661ZM29.1114 7.72165V15.4994C29.1114 16.5308 28.7016 17.52 27.9723 18.2493C27.243 18.9786 26.2539 19.3883 25.2225 19.3883H17.4448C16.4134 19.3883 15.4243 18.9786 14.695 18.2493C13.9657 17.52 13.5559 16.5308 13.5559 15.4994V7.72165C13.5559 6.69026 13.9657 5.7011 14.695 4.97179C15.4243 4.24248 16.4134 3.83276 17.4448 3.83276H25.2225C26.2539 3.83276 27.243 4.24248 27.9723 4.97179C28.7016 5.7011 29.1114 6.69026 29.1114 7.72165ZM40.7779 27.1661V34.9439C40.7779 35.9753 40.3682 36.9644 39.6389 37.6937C38.9096 38.423 37.9205 38.8328 36.8891 38.8328H29.1114C28.08 38.8328 27.0908 38.423 26.3615 37.6937C25.6322 36.9644 25.2225 35.9753 25.2225 34.9439V27.1661C25.2225 26.1347 25.6322 25.1455 26.3615 24.4162C27.0908 23.6869 28.08 23.2772 29.1114 23.2772H36.8891C37.9205 23.2772 38.9096 23.6869 39.6389 24.4162C40.3682 25.1455 40.7779 26.1347 40.7779 27.1661Z" stroke="#3755FA" stroke-width="2.91665" stroke-linecap="round" stroke-linejoin="round"/>
</g>
<defs>
<clipPath id="clip0_1_1041">
<rect width="42.666" height="42.666" fill="white" transform="translate(0.000640869)"/>
</clipPath>
</defs>
</svg>
